<svg xmlns="http://www.w3.org/2000/svg" width="640" height="320" viewBox="0 0 640 320">
  <defs>
    <radialGradient id="halo" cx="50%" cy="40%" r="65%">
      <stop offset="0%" stop-color="#ffffff" stop-opacity="0.9" />
      <stop offset="55%" stop-color="#ffffff" stop-opacity="0.35" />
      <stop offset="100%" stop-color="#ffffff" stop-opacity="0" />
    </radialGradient>
    <filter id="glow" x="-30%" y="-30%" width="160%" height="160%">
      <feGaussianBlur stdDeviation="8" result="coloredBlur" />
      <feMerge>
        <feMergeNode in="coloredBlur" />
        <feMergeNode in="SourceGraphic" />
      </feMerge>
    </filter>
    <linearGradient id="strokeGradient" x1="0%" y1="0%" x2="100%" y2="100%">
      <stop offset="0%" stop-color="#ffffff" stop-opacity="0.9" />
      <stop offset="100%" stop-color="#e6f7ff" stop-opacity="0.75" />
    </linearGradient>
  </defs>
  <rect width="640" height="320" fill="url(#halo)" opacity="0.55" />
  <g filter="url(#glow)" fill="none" stroke="url(#strokeGradient)" stroke-width="6" stroke-linecap="round" stroke-linejoin="round">
    <path d="M88 206c26-54 26-120 0-120h-8" />
    <path d="M58 204h70" />
    <path d="M142 120c18 0 28 8 28 28 0 28-26 32-26 56 0 6 2 10 4 14" />
    <path d="M170 120c-8 6-18 14-18 26 0 18 26 24 26 46 0 8-4 16-8 20" />
    <path d="M200 168h32" />
    <path d="M196 136c12 0 32 2 32 30 0 34-24 46-36 46-6 0-12-2-18-6" />
    <path d="M260 120c-14 8-22 22-22 42 0 28 14 46 40 46 14 0 28-8 36-20" />
    <path d="M332 120c-12 18-18 40-18 62 0 30 12 46 36 46 20 0 32-12 32-30 0-18-10-28-34-28-10 0-18 2-24 6" />
    <path d="M332 200c12 14 28 22 50 22 36 0 64-20 86-54" />
    <path d="M468 134c-24 38-36 80-36 122 0 30 12 42 28 42 18 0 34-18 46-40" />
    <path d="M446 224c18 12 38 18 60 18 26 0 50-8 78-30" />
    <path d="M508 166c20-14 36-36 46-66" />
  </g>
  <g filter="url(#glow)" fill="#ffffff" stroke="none">
    <path d="M478 76l12 32 34 2-28 20 10 32-28-18-30 20 10-34-26-18 34-4z" opacity="0.95" />
    <path d="M550 130l8 20 22 2-18 14 6 22-20-12-20 12 6-22-18-14 22-2z" opacity="0.85" />
    <path d="M580 58l6 16 18 2-14 10 4 18-14-10-16 10 6-18-14-10 18-2z" opacity="0.75" />
  </g>
  <text x="64" y="126" fill="#ffffff" font-family="'Poiret One','Trebuchet MS',sans-serif" font-size="96" letter-spacing="3" filter="url(#glow)">Let’s</text>
  <text x="232" y="244" fill="#ffffff" font-family="'Great Vibes','Brush Script MT',cursive" font-size="200" filter="url(#glow)">A</text>
</svg>
